<svg width="20" height="21" viewBox="0 0 20 21" fill="none" xmlns="http://www.w3.org/2000/svg">
<path d="M19 20.5C19.5523 20.5 20 20.0523 20 19.5C20 18.9477 19.5523 18.5 19 18.5V20.5ZM1 18.5C0.447715 18.5 0 18.9477 0 19.5C0 20.0523 0.447715 20.5 1 20.5V18.5ZM16.7071 10.2071C17.0976 9.81658 17.0976 9.18342 16.7071 8.79289C16.3166 8.40237 15.6834 8.40237 15.2929 8.79289L16.7071 10.2071ZM10 15.5L9.29289 16.2071C9.68342 16.5976 10.3166 16.5976 10.7071 16.2071L10 15.5ZM4.70711 8.79289C4.31658 8.40237 3.68342 8.40237 3.29289 8.79289C2.90237 9.18342 2.90237 9.81658 3.29289 10.2071L4.70711 8.79289ZM11 1.5C11 0.947715 10.5523 0.5 10 0.5C9.44771 0.5 9 0.947715 9 1.5H11ZM19 18.5H1V20.5H19V18.5ZM15.2929 8.79289L9.29289 14.7929L10.7071 16.2071L16.7071 10.2071L15.2929 8.79289ZM10.7071 14.7929L4.70711 8.79289L3.29289 10.2071L9.29289 16.2071L10.7071 14.7929ZM9 1.5V15.5H11V1.5H9Z" fill="#1D1D1F"/>
</svg>
